<?xml version="1.0" encoding="UTF-8"?>
<svg width="43px" height="20px" viewBox="0 0 43 20" version="1.1" xmlns="http://www.w3.org/2000/svg" xmlns:xlink="http://www.w3.org/1999/xlink">
    <title>pic_beta.png</title>
    <g id="确定版" stroke="none" stroke-width="1" fill="none" fill-rule="evenodd">
        <g id="pic_beta.png" fill-rule="nonzero">
            <g id="hot备份-2" fill="#F16844">
                <path d="M32.1,0 L10,0 C4.477,0 0,4.477 0,10 C0,15.521 4.477,20 10,20 L32.136,20 C37.621,20 42.101,15.521 42.101,10 C42.101,4.477 37.621,0 32.1,0 Z" id="路径"></path>
            </g>
            <g id="BETA备份" transform="translate(6.056500, 6.000000)" fill="#FFFFFF">
                <path d="M3.036,0 C4.884,0 6.44623867,0.588 6.44387699,2.412 C6.44599136,3.096 6.06995036,3.9 5.382593,4.176 L5.19954639,4.212 C6.09923564,4.452 6.86027232,5.196 6.85859429,6.492 C6.86537244,8.208 5.4004402,8.928 3.4564402,8.928 L0.000440202181,8.928 L0,0 L3.036,0 Z M2.15036555,5.124 L2.14756882,7.284 L3.13156882,7.284 C4.16356882,7.284 4.77917478,6.816 4.77731744,5.94 C4.77811695,5.316 4.34636555,5.124 3.30236555,5.124 L2.15036555,5.124 Z M2.14588692,1.632 L2.15241648,3.54 L2.95641648,3.54 C3.86841648,3.54 4.35805351,3.048 4.3589878,2.328 C4.3596694,1.8 4.01788692,1.632 3.11788692,1.632 L2.14588692,1.632 Z" id="形状"></path>
                <polygon id="路径" points="7.85861771 0 7.85905791 8.928 13.6550579 8.928 13.6513885 7.128 10.0033885 7.128 9.99984342 5.232 12.9878434 5.232 12.996174 3.432 10.008174 3.432 10.0043182 1.776 13.5203182 1.776 13.5226177 0"></polygon>
                <polygon id="路径" points="17.0670579 1.776 17.0697976 8.928 19.2177976 8.928 19.2150579 1.776 21.6390579 1.776 21.6413574 0 14.6573574 0 14.6550579 1.776"></polygon>
                <path d="M27.2576569,6.876 L27.768,8.928 L29.988,8.928 L27.2155598,0 L24.6475598,0 L21.876,8.928 L24.096,8.928 L24.6176569,6.876 L27.2576569,6.876 Z M26.845801,5.22 L25.021801,5.22 L25.2296556,4.56 L25.908369,1.692 L25.9686176,1.5 C26.1954368,2.412 26.425054,3.48 26.6579042,4.368 L26.845801,5.22 Z" id="形状"></path>
            </g>
        </g>
    </g>
</svg>