<?xml version="1.0" encoding="UTF-8"?>
<svg width="24px" height="24px" viewBox="0 0 24 24" version="1.1" xmlns="http://www.w3.org/2000/svg" xmlns:xlink="http://www.w3.org/1999/xlink">
    <title>13</title>
    <g id="13" stroke="none" stroke-width="1" fill="none" fill-rule="evenodd">
        <g id="ICON/20px/线性/下载备份">
            <rect id="白底" x="0" y="0" width="24" height="24"></rect>
            <path d="M20.1984642,10.8229559 C20.5965369,10.8229559 20.927613,11.1109816 20.9962711,11.4908075 L21.0093353,11.6371621 L21.0093353,20.2584928 C21.0093353,20.6582027 20.7224894,20.9906406 20.3442193,21.059581 L20.1984642,21.072699 L3.82020632,21.072699 C3.42213368,21.072699 3.0910575,20.7846733 3.02239949,20.4048474 L3.00933527,20.2584928 L3.00933527,11.6371621 C3.00933527,11.1874885 3.37237461,10.8229559 3.82020632,10.8229559 C4.21827896,10.8229559 4.54935515,11.1109816 4.61801316,11.4908075 L4.63107738,11.6371621 L4.63051475,19.4428945 L19.3868009,19.4428945 L19.3875932,11.6371621 C19.3875932,11.2374522 19.6744391,10.9050143 20.0527091,10.8360739 L20.1984642,10.8229559 Z M11.9903591,3.07269896 C12.4381908,3.07269896 12.8012301,3.43723149 12.8012301,3.88690515 L12.8012301,3.88690515 L12.8006224,13.0208999 L14.7484954,11.1411413 L14.8626404,11.0491888 C15.1829555,10.8357105 15.6191844,10.8758293 15.8950136,11.164029 C16.2053215,11.4882538 16.1951163,12.0036788 15.8722197,12.315263 L15.8722197,12.315263 L12.5544948,15.5167537 L12.4406368,15.6085131 C12.1211394,15.8216375 11.6860721,15.7824318 11.4099279,15.4958978 L11.4099279,15.4958978 L8.13578937,12.0985718 L8.04381837,11.9842768 C7.83010535,11.6633862 7.86854723,11.2252266 8.15460854,10.9472655 L8.15460854,10.9472655 L8.26843541,10.8549162 C8.58801155,10.6403242 9.02437634,10.6789241 9.30119895,10.966162 L9.30119895,10.966162 L11.1786224,12.9168999 L11.179488,3.88690515 L11.1925522,3.74055056 C11.2612102,3.36072466 11.5922864,3.07269896 11.9903591,3.07269896 Z" id="下载" fill="#FFFFFF"></path>
        </g>
    </g>
</svg>